<?xml version="1.0" standalone="no"?>
<!DOCTYPE svg PUBLIC "-//W3C//DTD SVG 20010904//EN"
 "http://www.w3.org/TR/2001/REC-SVG-20010904/DTD/svg10.dtd">
<svg version="1.0" xmlns="http://www.w3.org/2000/svg"
 width="1024.000000pt" height="1024.000000pt" viewBox="0 0 1024.000000 1024.000000"
 preserveAspectRatio="xMidYMid meet">
<metadata>
Created by potrace 1.14, written by Peter Selinger 2001-2017
</metadata>
<g transform="translate(0.000000,1024.000000) scale(0.100000,-0.100000)"
fill="#000000" stroke="none">
<path d="M4858 10236 c-1 -2 -50 -6 -108 -10 -58 -3 -116 -8 -130 -11 -14 -2
-52 -7 -85 -10 -105 -9 -381 -52 -395 -60 -3 -2 -26 -6 -50 -10 -25 -4 -126
-27 -225 -52 -661 -165 -1268 -457 -1830 -879 -82 -62 -161 -123 -175 -136
-14 -13 -55 -48 -90 -78 -243 -205 -529 -511 -739 -790 -39 -52 -75 -100 -79
-105 -52 -64 -269 -412 -322 -515 -19 -36 -43 -78 -54 -95 -12 -16 -21 -32
-20 -35 0 -3 -28 -63 -62 -135 -76 -160 -159 -361 -214 -520 -69 -202 -140
-458 -174 -635 -2 -14 -9 -47 -15 -75 -6 -27 -13 -66 -16 -85 -12 -77 -34
-238 -40 -285 -3 -27 -8 -64 -10 -81 -26 -188 -26 -858 0 -1015 2 -13 6 -51
10 -84 3 -33 8 -76 10 -95 11 -75 27 -176 31 -200 3 -14 7 -38 9 -55 6 -39 13
-73 19 -93 3 -9 8 -33 11 -52 6 -36 59 -251 75 -305 34 -116 103 -333 111
-350 5 -11 24 -60 43 -110 90 -240 229 -524 369 -760 103 -172 101 -169 107
-175 3 -3 27 -39 54 -80 169 -256 395 -529 646 -778 84 -84 127 -124 284 -263
31 -28 260 -207 341 -267 86 -63 359 -237 475 -301 136 -76 468 -234 599 -286
276 -109 644 -220 861 -259 14 -3 50 -9 80 -15 30 -6 71 -13 90 -16 19 -3 60
-10 90 -15 51 -9 73 -12 185 -25 208 -24 303 -29 590 -29 245 -1 407 5 510 19
17 2 59 7 95 10 36 4 74 9 85 11 11 1 40 6 65 9 38 5 116 18 230 39 299 55
738 189 1005 306 22 10 74 32 115 50 362 156 750 396 1140 706 288 228 683
647 902 955 132 184 209 304 309 479 61 106 180 340 223 440 16 36 37 83 47
105 87 196 231 646 274 854 2 9 13 61 24 116 26 124 58 327 66 420 4 39 8 81
11 95 25 158 25 850 0 1000 -3 14 -7 50 -10 80 -3 30 -10 87 -15 125 -6 39
-13 88 -16 110 -3 22 -8 51 -11 65 -2 14 -6 36 -9 50 -3 14 -10 50 -16 80 -6
30 -12 66 -15 80 -14 79 -125 483 -144 525 -5 11 -18 47 -29 80 -23 70 -85
233 -111 290 -10 22 -32 73 -50 114 -180 413 -502 916 -815 1270 -182 206
-455 471 -601 583 -16 12 -31 25 -34 29 -5 7 -282 213 -335 250 -116 80 -333
211 -470 284 -49 27 -97 52 -105 56 -33 18 -270 129 -276 129 -3 0 -41 15 -84
34 -90 40 -361 138 -464 167 -209 61 -512 132 -616 145 -19 2 -60 9 -90 14
-30 5 -75 12 -100 15 -25 3 -56 8 -70 10 -14 2 -61 7 -105 11 -44 3 -98 8
-120 11 -49 4 -642 13 -647 9z"/>
</g>
</svg>
