<?xml version="1.0" encoding="UTF-8" standalone="no"?>
<!-- Created with Inkscape (http://www.inkscape.org/) -->

<svg
   width="27.781248mm"
   height="23.82571mm"
   viewBox="0 0 27.781248 23.82571"
   version="1.1"
   id="svg1"
   xml:space="preserve"
   inkscape:version="1.3 (0e150ed6c4, 2023-07-21)"
   sodipodi:docname="boiling_frog.svg"
   xmlns:inkscape="http://www.inkscape.org/namespaces/inkscape"
   xmlns:sodipodi="http://sodipodi.sourceforge.net/DTD/sodipodi-0.dtd"
   xmlns="http://www.w3.org/2000/svg"
   xmlns:svg="http://www.w3.org/2000/svg"><sodipodi:namedview
     id="namedview1"
     pagecolor="#505050"
     bordercolor="#eeeeee"
     borderopacity="1"
     inkscape:showpageshadow="0"
     inkscape:pageopacity="0"
     inkscape:pagecheckerboard="0"
     inkscape:deskcolor="#d1d1d1"
     inkscape:document-units="mm"
     showgrid="true"
     inkscape:zoom="3.2747755"
     inkscape:cx="180.47039"
     inkscape:cy="122.29846"
     inkscape:window-width="1992"
     inkscape:window-height="1123"
     inkscape:window-x="0"
     inkscape:window-y="0"
     inkscape:window-maximized="1"
     inkscape:current-layer="layer1"><inkscape:grid
       id="grid2"
       units="px"
       originx="-120"
       originy="-55.231308"
       spacingx="0.26458333"
       spacingy="0.26458334"
       empcolor="#0099e5"
       empopacity="0.30196078"
       color="#0099e5"
       opacity="0.14902"
       empspacing="5"
       dotted="false"
       gridanglex="30"
       gridanglez="30"
       visible="true" /></sodipodi:namedview><defs
     id="defs1"><style
       id="style1">&#10;&#10;      .cls-3 {&#10;        fill: url(#linear-gradient-1);&#10;      }&#10;&#10;      .cls-4 {&#10;        fill: #fc9502;&#10;      }&#10;&#10;      .cls-5 {&#10;        fill: #fce202;&#10;      }&#10;    </style></defs><g
     inkscape:label="Layer 1"
     inkscape:groupmode="layer"
     id="layer1"
     transform="translate(-31.749999,-14.613284)"><rect
       style="fill:#827e7e;fill-opacity:1;stroke:none;stroke-width:0.314548;stroke-linecap:round"
       id="rect1"
       width="27.781248"
       height="8.7437344"
       x="31.75"
       y="24.438778"
       inkscape:export-filename="../frog_alive.svg"
       inkscape:export-xdpi="96"
       inkscape:export-ydpi="96" /><ellipse
       style="fill:#827e7e;fill-opacity:1;stroke:none;stroke-width:0.354125;stroke-linecap:round"
       id="path1-7"
       cx="45.640625"
       cy="24.438778"
       rx="13.890625"
       ry="5.256485" /><path
       id="path5"
       style="fill:#569caa;fill-opacity:0.582447;stroke:none;stroke-width:0.326583;stroke-linecap:round"
       d="M 45.640625,19.707841 A 13.12664,4.7308364 0 0 0 32.513778,24.438818 H 58.767472 A 13.12664,4.7308364 0 0 0 45.640625,19.707841 Z" /><ellipse
       style="fill:#827e7e;fill-opacity:1;stroke:none;stroke-width:0.354125;stroke-linecap:round"
       id="path1-7-6"
       cx="45.640625"
       cy="33.18251"
       rx="13.890625"
       ry="5.256485" /><g
       id="g2"
       transform="matrix(0.43821615,0,0,0.43821615,37.752734,13.736851)"><path
         fill="#c6e5b3"
         d="M 36,22 C 36,29.456 27.941,34 18,34 8.059,34 0,29.456 0,22 0,14.544 8.059,7 18,7 c 9.941,0 18,7.544 18,15 z"
         id="path1" /><path
         fill="#77b255"
         d="M 31.755,12.676 C 33.123,11.576 34,9.891 34,8 34,4.687 31.313,2 28,2 25.139,2 22.75,4.004 22.149,6.685 20.861,6.202 19.466,5.927 18,5.927 16.535,5.927 15.139,6.202 13.851,6.685 13.25,4.004 10.861,2 8,2 4.687,2 2,4.687 2,8 2,9.891 2.877,11.576 4.245,12.676 1.6,15.356 0,18.685 0,22 c 0,7.456 8.059,1 18,1 9.941,0 18,6.456 18,-1 0,-3.315 -1.6,-6.644 -4.245,-9.324 z"
         id="path2" /><circle
         fill="#ffffff"
         cx="7.5"
         cy="7.5"
         r="3.5"
         id="circle2" /><circle
         fill="#292f33"
         cx="7.5"
         cy="7.5"
         r="1.5"
         id="circle3" /><circle
         fill="#ffffff"
         cx="28.5"
         cy="7.5"
         r="3.5"
         id="circle4" /><circle
         fill="#292f33"
         cx="28.5"
         cy="7.5"
         r="1.5"
         id="circle5" /><circle
         fill="#5c913b"
         cx="14"
         cy="20"
         r="1"
         id="circle6" /><circle
         fill="#5c913b"
         cx="22"
         cy="20"
         r="1"
         id="circle7" /></g><path
       id="path1-7-7"
       style="fill:#569caa;fill-opacity:0.582447;stroke:none;stroke-width:0.326583;stroke-linecap:round"
       d="M 58.767472,24.438818 H 32.513778 a 13.12664,4.7308364 0 0 0 13.126847,4.730978 13.12664,4.7308364 0 0 0 13.126847,-4.730978 z" /></g></svg>
